<?xml version="1.0" encoding="UTF-8" standalone="no"?>
<!-- Created with Inkscape (http://www.inkscape.org/) -->

<svg
   width="33.866665mm"
   height="33.866665mm"
   viewBox="0 0 33.866665 33.866665"
   version="1.1"
   id="svg5"
   xml:space="preserve"
   inkscape:version="1.2.2 (732a01da63, 2022-12-09)"
   sodipodi:docname="icon.svg"
   inkscape:export-filename="ico.png"
   inkscape:export-xdpi="96.000008"
   inkscape:export-ydpi="96.000008"
   xmlns:inkscape="http://www.inkscape.org/namespaces/inkscape"
   xmlns:sodipodi="http://sodipodi.sourceforge.net/DTD/sodipodi-0.dtd"
   xmlns="http://www.w3.org/2000/svg"
   xmlns:svg="http://www.w3.org/2000/svg"><sodipodi:namedview
     id="namedview7"
     pagecolor="#505050"
     bordercolor="#eeeeee"
     borderopacity="1"
     inkscape:showpageshadow="0"
     inkscape:pageopacity="0"
     inkscape:pagecheckerboard="0"
     inkscape:deskcolor="#505050"
     inkscape:document-units="mm"
     showgrid="false"
     inkscape:zoom="1.5233586"
     inkscape:cx="60.06465"
     inkscape:cy="32.165769"
     inkscape:window-width="1080"
     inkscape:window-height="1849"
     inkscape:window-x="1912"
     inkscape:window-y="-8"
     inkscape:window-maximized="1"
     inkscape:current-layer="g1876" /><defs
     id="defs2" /><g
     inkscape:label="Calque 1"
     inkscape:groupmode="layer"
     id="layer1"
     transform="translate(-87.86413,-62.266332)"><ellipse
       style="fill:#000000;fill-opacity:0;stroke-width:3;stroke-linejoin:round"
       id="path403"
       cx="112.25134"
       cy="88.42556"
       rx="24.071404"
       ry="26.282042" /><g
       id="g1876"><g
         id="g1861"
         transform="translate(-0.07019091,-0.85969257)"><circle
           style="fill:#ffffff;fill-opacity:1;stroke-width:1.9288;stroke-linejoin:round"
           id="path457"
           cx="104.86765"
           cy="80.059357"
           r="16.933332" /><path
           style="fill:#000000;stroke-width:0.153546"
           d="m 103.98006,92.910843 c -1.30777,-0.137538 -1.899,-0.328874 -3.39371,-1.09829 -2.157114,-1.110397 -3.808051,-3.061184 -4.663641,-5.510675 -0.564971,-1.617467 -0.591759,-4.162295 -0.06087,-5.782937 0.639723,-1.952905 2.096555,-3.865861 3.954329,-5.192397 1.227482,-0.876487 3.601772,-1.947769 3.577382,-1.61413 -0.004,0.05542 -0.38407,0.370774 -0.84448,0.700751 -0.46041,0.329983 -1.10537,0.951844 -1.43323,1.381917 -0.6118,0.802541 -1.159,1.765133 -1.0598,1.864329 0.0307,0.0307 1.42864,-0.561872 3.1066,-1.316792 1.67794,-0.754919 3.17804,-1.412964 3.33355,-1.462321 0.27046,-0.08584 0.28274,0.116275 0.28274,4.65296 v 4.742698 l -2.79026,1.335118 -2.79028,1.335124 0.44869,0.471944 c 1.10237,1.159498 2.74929,1.728746 4.97831,1.720714 1.12707,-0.0041 1.6594,-0.08241 2.34158,-0.344647 l 0.88289,-0.339402 v -2.96793 -2.96793 l -1.07748,-0.974854 -1.07748,-0.974854 1.07202,-0.844506 1.07202,-0.844505 0.005,-2.158263 0.005,-2.158262 -1.35808,-0.260343 c -0.74696,-0.143191 -2.66436,-0.635249 -4.26091,-1.093474 -3.42915,-0.984186 -4.504841,-1.145628 -5.331623,-0.800174 -0.972158,0.406192 -1.296059,1.80585 -0.600397,2.594417 0.401667,0.455306 0.125545,0.440583 -0.621431,-0.03314 -0.945408,-0.599559 -1.340104,-1.380831 -1.338137,-2.648742 0.0029,-1.82063 1.167751,-3.413445 3.00512,-4.108939 1.444128,-0.54665 2.688758,-0.383745 6.519318,0.853292 3.67424,1.186553 4.75679,1.323906 5.43242,0.689249 0.85557,-0.803679 0.35269,-1.815228 -1.09492,-2.202402 -1.01548,-0.271596 -0.79716,-0.475676 0.40136,-0.375197 1.26849,0.106346 2.43138,0.643212 2.99562,1.382961 1.18362,1.551815 0.71204,4.116769 -0.95857,5.213696 -0.69078,0.45357 -1.46384,0.729257 -2.04495,0.729257 h -0.43772 v 2.207747 2.207747 l 0.82164,0.633897 c 1.49801,1.155703 1.48785,1.076819 0.26116,2.027989 l -1.07075,0.830253 -0.006,2.888535 -0.006,2.888529 0.70823,-0.508563 c 0.79241,-0.568998 1.99989,-2.018407 2.49368,-2.993273 0.66042,-1.303856 0.79776,-0.924655 0.40844,1.127667 -0.87703,4.623282 -4.98438,7.601281 -9.78725,7.096154 z m -2.1955,-6.614217 0.69508,-0.337689 v -4.495139 -4.495145 l -1.18999,0.547828 c -0.6545,0.301303 -1.2727,0.581934 -1.373794,0.62362 -0.462217,0.190587 -0.715341,3.894698 -0.370612,5.423288 0.32519,1.441934 1.071716,3.070927 1.407336,3.070927 0.0753,0 0.4497,-0.15196 0.83198,-0.33769 z"
           id="path248"
           sodipodi:nodetypes="cssssssssssscccssscccccccccssssscsssssssscccsscccsssccscccsssss" /></g><circle
         style="fill:#ffda2d;fill-opacity:1;stroke-width:2.86813;stroke-linejoin:round"
         id="path1024"
         cx="114.17553"
         cy="88.577728"
         r="7.5552626" /></g></g></svg>
